<?xml version="1.0" encoding="utf-8"?>
<!-- Generator: Adobe Illustrator 16.0.0, SVG Export Plug-In . SVG Version: 6.00 Build 0)  -->
<!DOCTYPE svg PUBLIC "-//W3C//DTD SVG 1.1//EN" "http://www.w3.org/Graphics/SVG/1.1/DTD/svg11.dtd">
<svg version="1.1" id="Layer_1" xmlns="http://www.w3.org/2000/svg" xmlns:xlink="http://www.w3.org/1999/xlink" x="0px" y="0px"
	 width="64px" height="64px" viewBox="0 0 64 64" enable-background="new 0 0 64 64" xml:space="preserve">
<g id="TICK_1_" enable-background="new    ">
	<g id="TICK">
		<g>
			<path fill="#FFFFFF" d="M52.786,15.756c-0.957,0-1.823,0.388-2.45,1.015L26.226,40.88L13.664,28.318c-0.627-0.627-1.493-1.015-2.449-1.015
				c-1.914,0-3.464,1.55-3.464,3.464c0,0.956,0.388,1.822,1.015,2.449l15.012,15.013c0.627,0.627,1.493,1.015,2.449,1.015
				c0.957,0,1.822-0.388,2.45-1.015l26.56-26.56c0.627-0.625,1.015-1.493,1.015-2.449C56.25,17.307,54.699,15.756,52.786,15.756z"/>
		</g>
	</g>
</g>
</svg>
