<?xml version="1.0" encoding="utf-8"?>
<!-- Generator: Adobe Illustrator 16.0.0, SVG Export Plug-In . SVG Version: 6.00 Build 0)  -->
<!DOCTYPE svg PUBLIC "-//W3C//DTD SVG 1.1//EN" "http://www.w3.org/Graphics/SVG/1.1/DTD/svg11.dtd">
<svg version="1.1" id="Ebene_1" xmlns="http://www.w3.org/2000/svg" xmlns:xlink="http://www.w3.org/1999/xlink" x="0px" y="0px"
	 width="223.417px" height="52.333px" viewBox="0 0 223.417 52.333" enable-background="new 0 0 223.417 52.333"
	 xml:space="preserve">
<g enable-background="new    ">
	<path d="M9.497,5.775v5.363h12.13v4.896H9.497v10.295H3.162V0.916h19.51v4.859H9.497z"/>
	<path d="M25.734,26.329V0.916h5.507v25.413H25.734z"/>
	<path d="M51.796,24.709c-1.08,0.9-3.276,2.196-6.804,2.196c-0.972,0-4.787-0.18-7.379-2.7c-1.116-1.079-2.699-3.383-2.699-7.307
		c0-1.08,0.071-4.14,2.195-6.695C38.405,8.655,40.997,6.712,45.748,7c2.196,0.107,4.14,0.611,5.903,2.016
		c2.34,1.907,3.456,4.896,3.456,7.919C55.107,21.182,53.091,23.63,51.796,24.709z M47.512,12.075
		c-0.504-0.36-1.26-0.721-2.735-0.721c-0.252,0-1.296,0.072-2.088,0.54c-1.008,0.576-2.195,2.196-2.195,4.968
		c0,1.836,0.611,3.203,0.972,3.779c0.432,0.648,1.512,1.836,3.6,1.836c3.06,0,4.428-2.556,4.428-5.363
		C49.492,14.271,48.592,12.831,47.512,12.075z"/>
	<path d="M67.637,12.507c-0.181,0.036-1.044,0.144-1.729,0.396c-1.476,0.504-1.728,1.44-1.728,2.844v10.583h-5.507V7.539h5.363
		v1.944c0.468-0.396,0.972-0.9,2.195-1.404c1.512-0.611,2.556-0.684,3.239-0.756v4.896L67.637,12.507z"/>
	<path d="M72.245,5.2V0.916h5.508V5.2H72.245z M72.245,26.329V7.539h5.508v18.79H72.245z"/>
	<path d="M93.771,26.329v-1.691c-0.396,0.287-0.756,0.539-1.151,0.792c-0.685,0.468-2.268,1.403-4.607,1.403
		c-3.384,0-4.932-1.835-5.544-3.095c-0.396-0.792-0.611-1.728-0.611-2.628c0-3.383,3.023-5.003,3.852-5.363
		c1.403-0.611,3.959-1.115,7.522-1.764v-1.044c0-0.647-0.107-2.268-2.123-2.268c-1.62,0-2.376,0.756-2.664,1.368
		c-0.072,0.144-0.18,0.432-0.252,0.828h-5.543c0.071-0.756,0.107-2.376,1.512-3.78c1.548-1.512,3.6-1.8,4.247-1.907
		c1.08-0.145,1.979-0.145,2.412-0.145c2.628,0,6.191,0.612,7.451,3.312c0.216,0.504,0.396,1.008,0.396,2.088v10.979
		c0,1.62,0.072,2.232,0.54,2.916H93.771z M89.668,18.519c-0.216,0.071-0.432,0.144-0.647,0.252
		c-1.368,0.575-1.728,1.367-1.728,2.087c0,0.108,0.035,0.504,0.216,0.864c0.216,0.36,0.756,1.044,1.907,1.044
		c1.008,0,1.872-0.576,2.124-0.756c1.62-1.152,1.691-2.916,1.691-4.68L89.668,18.519z"/>
	<path d="M114.974,26.329V15.71c0-1.26-0.035-2.195-0.215-2.699c-0.252-0.647-0.936-1.512-2.52-1.512c-0.252,0-1.188,0-1.873,0.576
		c-0.936,0.72-1.043,1.871-1.043,4.104v10.15h-5.544V7.575h5.615v1.62c0.181-0.18,0.396-0.468,0.864-0.828
		c0.684-0.504,2.195-1.296,4.427-1.296c0.432,0,2.016,0.036,3.348,0.756c2.303,1.225,2.484,3.348,2.484,5.651v12.851H114.974z"/>
	<path d="M125.488,5.2V0.916h5.508V5.2H125.488z M125.488,26.329V7.539h5.508v18.79H125.488z"/>
	<path d="M151.082,23.701c-2.482,2.916-5.686,3.241-7.055,3.241c-0.828,0-2.482-0.109-4.391-1.044
		c-3.527-1.729-4.932-5.075-4.932-8.819c0-0.863,0.035-2.663,0.936-4.751C137.763,7.396,142.408,7,144.136,7
		c1.475,0,4.787,0.287,7.307,3.455c0.215,0.288,0.359,0.504,0.719,1.08l-4.104,2.34c-0.035-0.108-0.324-0.685-0.611-1.08
		c-0.324-0.396-1.367-1.548-3.059-1.548c-0.396,0-1.189,0.036-2.018,0.647c-1.906,1.44-1.979,4.644-1.979,5.004
		c0,1.62,0.539,3.707,1.799,4.751c0.361,0.288,1.152,0.9,2.377,0.9c1.799-0.036,2.771-1.224,3.096-1.692
		c0.18-0.288,0.322-0.504,0.539-1.115l4.176,2.159C151.982,22.514,151.55,23.161,151.082,23.701z"/>
	<path d="M166.417,26.329v-1.691c-0.395,0.287-0.756,0.539-1.15,0.792c-0.686,0.468-2.268,1.403-4.607,1.403
		c-3.385,0-4.932-1.835-5.545-3.095c-0.395-0.792-0.611-1.728-0.611-2.628c0-3.383,3.023-5.003,3.852-5.363
		c1.404-0.611,3.959-1.115,7.523-1.764v-1.044c0-0.647-0.107-2.268-2.123-2.268c-1.621,0-2.377,0.756-2.664,1.368
		c-0.072,0.144-0.18,0.432-0.252,0.828h-5.543c0.07-0.756,0.107-2.376,1.512-3.78c1.547-1.512,3.6-1.8,4.246-1.907
		c1.08-0.145,1.98-0.145,2.412-0.145c2.629,0,6.191,0.612,7.451,3.312c0.217,0.504,0.396,1.008,0.396,2.088v10.979
		c0,1.62,0.072,2.232,0.539,2.916H166.417z M162.314,18.519c-0.215,0.071-0.432,0.144-0.646,0.252
		c-1.369,0.575-1.729,1.367-1.729,2.087c0,0.108,0.035,0.504,0.217,0.864c0.215,0.36,0.756,1.044,1.906,1.044
		c1.008,0,1.873-0.576,2.125-0.756c1.619-1.152,1.691-2.916,1.691-4.68L162.314,18.519z"/>
	<path d="M190.898,23.378c-1.656,2.483-5.111,3.455-7.955,3.455c-1.008,0-4.139-0.179-6.875-1.872
		c-1.115-0.684-1.871-1.439-2.232-1.764l3.527-3.167c0.324,0.323,0.648,0.647,1.01,0.899c1.223,0.972,2.914,1.691,4.463,1.691
		c0.252,0,0.756-0.035,1.367-0.18c0.828-0.18,1.943-0.647,1.943-1.691c-0.035-1.296-1.691-1.44-3.707-1.764
		c-3.924-0.648-5.723-1.548-6.695-3.42c-0.504-1.008-0.576-1.907-0.576-2.34c0-0.504,0.109-1.619,0.793-2.808
		c0.863-1.548,2.986-3.491,7.162-3.491c1.188,0,3.961,0.18,6.803,1.8c0.541,0.324,1.045,0.647,1.549,1.008l-3.42,3.167
		c-0.324-0.252-0.648-0.504-1.008-0.72c-1.008-0.611-2.52-1.151-3.707-1.151c-0.793,0-1.512,0.216-1.764,0.323
		c-0.684,0.324-0.865,0.792-0.865,1.116c0,0.36,0.217,0.684,0.504,0.9c0.541,0.359,1.908,0.54,2.521,0.684l2.482,0.54
		c2.988,0.647,5.58,2.159,5.58,5.651C191.798,21.794,191.222,22.909,190.898,23.378z"/>
	<path d="M206.486,26.329v-9.827c0-1.439,0.072-3.348-1.295-4.283c-0.469-0.324-1.008-0.468-1.549-0.468
		c-0.287,0-1.008,0.072-1.654,0.504c-1.189,0.828-1.332,2.124-1.332,4.716v9.358h-5.545V0.916h5.545l0.035,8.604
		c0.107-0.108,0.576-0.648,1.08-1.008c1.729-1.332,3.455-1.477,4.248-1.477c2.52,0,3.959,1.188,4.57,1.872
		c0.396,0.432,0.721,0.972,0.9,1.512c0.324,0.828,0.504,1.764,0.504,3.563v12.347H206.486z"/>
	<path d="M216.027,26.329v-6.012h5.688v6.012H216.027z"/>
</g>
<g enable-background="new    ">
	<path d="M13.509,47.5l-0.11,0.469c-0.451,0.182-0.811,0.307-1.081,0.379c-0.27,0.07-0.5,0.105-0.691,0.105
		c-0.392,0-0.686-0.102-0.882-0.305s-0.294-0.453-0.294-0.752c0-0.107,0.01-0.225,0.029-0.355c0.02-0.129,0.051-0.281,0.096-0.457
		l0.724-2.736c0.054-0.209,0.097-0.4,0.129-0.57c0.032-0.172,0.048-0.309,0.048-0.412c0-0.326-0.071-0.586-0.211-0.777
		c-0.141-0.189-0.365-0.285-0.67-0.285c-0.325,0-0.645,0.076-0.958,0.23c-0.313,0.154-0.667,0.441-1.06,0.863l-1.286,5.432H5.931
		l1.155-4.898c0.024-0.107,0.047-0.221,0.07-0.34c0.021-0.119,0.033-0.209,0.033-0.268c0-0.318-0.079-0.566-0.236-0.748
		s-0.39-0.271-0.695-0.271c-0.276,0-0.582,0.07-0.917,0.209c-0.334,0.139-0.723,0.451-1.164,0.936l-1.251,5.381H1.556l1.099-4.752
		c0.039-0.17,0.077-0.354,0.113-0.549s0.055-0.361,0.055-0.498c0-0.283-0.047-0.471-0.14-0.562c-0.093-0.09-0.274-0.135-0.544-0.135
		c-0.108,0-0.247,0.02-0.416,0.061s-0.301,0.074-0.394,0.1l0.11-0.471c0.383-0.172,0.722-0.301,1.016-0.385s0.547-0.125,0.758-0.125
		c0.393,0,0.671,0.105,0.836,0.318c0.164,0.213,0.251,0.502,0.261,0.869h0.044c0.576-0.455,1.048-0.779,1.419-0.975
		s0.812-0.293,1.324-0.293c0.434,0,0.786,0.125,1.057,0.377c0.271,0.252,0.423,0.568,0.457,0.949h0.029
		c0.52-0.436,0.983-0.764,1.389-0.99c0.406-0.225,0.879-0.336,1.419-0.336c0.467,0,0.826,0.135,1.076,0.406
		c0.25,0.271,0.375,0.627,0.375,1.066c0,0.088-0.014,0.244-0.041,0.471c-0.027,0.225-0.069,0.447-0.128,0.666l-0.617,2.354
		c-0.044,0.156-0.085,0.336-0.125,0.539s-0.059,0.361-0.059,0.473c0,0.279,0.059,0.469,0.176,0.568
		c0.117,0.102,0.315,0.15,0.594,0.15c0.093,0,0.227-0.012,0.403-0.037C13.281,47.565,13.416,47.536,13.509,47.5z"/>
	<path d="M19.032,47.362h-0.051c-0.107,0.088-0.235,0.199-0.384,0.334c-0.149,0.133-0.323,0.262-0.523,0.385
		c-0.19,0.121-0.397,0.229-0.622,0.318c-0.225,0.09-0.468,0.135-0.731,0.135c-0.707,0-1.262-0.254-1.664-0.762
		s-0.604-1.203-0.604-2.082c0-0.605,0.112-1.195,0.337-1.768c0.224-0.572,0.534-1.084,0.929-1.539
		c0.376-0.436,0.822-0.785,1.339-1.053c0.517-0.266,1.049-0.398,1.596-0.398c0.346,0,0.677,0.047,0.992,0.139
		c0.315,0.094,0.562,0.197,0.743,0.314l1.344-0.344l0.088,0.109l-1.116,4.73c-0.039,0.15-0.08,0.336-0.121,0.553
		c-0.042,0.219-0.062,0.379-0.062,0.48c0,0.279,0.059,0.467,0.176,0.564s0.315,0.146,0.594,0.146c0.093,0,0.225-0.014,0.396-0.043
		c0.171-0.029,0.303-0.061,0.396-0.096l-0.11,0.469c-0.44,0.176-0.769,0.303-0.984,0.381s-0.477,0.117-0.785,0.117
		c-0.352,0-0.631-0.104-0.836-0.309C19.165,47.94,19.052,47.678,19.032,47.362z M20.088,42.727c0-0.16-0.017-0.314-0.051-0.461
		s-0.105-0.283-0.212-0.412c-0.098-0.121-0.232-0.219-0.403-0.293c-0.171-0.072-0.386-0.109-0.645-0.109
		c-0.357,0-0.704,0.117-1.041,0.352c-0.337,0.234-0.64,0.551-0.909,0.947c-0.254,0.371-0.462,0.82-0.623,1.348
		c-0.161,0.529-0.242,1.064-0.242,1.607c0,0.297,0.017,0.561,0.051,0.791s0.1,0.439,0.197,0.631c0.093,0.186,0.227,0.33,0.402,0.432
		c0.176,0.104,0.397,0.154,0.666,0.154c0.273,0,0.559-0.076,0.859-0.23s0.637-0.424,1.013-0.811L20.088,42.727z"/>
	<path d="M30.376,41.774c0,0.215-0.084,0.414-0.253,0.598c-0.169,0.182-0.378,0.273-0.627,0.273c-0.161,0-0.32-0.021-0.477-0.066
		c-0.157-0.043-0.328-0.109-0.514-0.197c-0.268,0.152-0.545,0.338-0.83,0.561c-0.286,0.223-0.597,0.492-0.933,0.807
		c0.278,0.725,0.514,1.316,0.707,1.777c0.193,0.463,0.358,0.84,0.495,1.133c0.176,0.367,0.37,0.627,0.583,0.781
		c0.212,0.152,0.445,0.23,0.699,0.23c0.117,0,0.278-0.018,0.483-0.053s0.364-0.072,0.476-0.109l-0.11,0.48
		c-0.455,0.184-0.812,0.307-1.071,0.371c-0.259,0.062-0.521,0.094-0.785,0.094c-0.313,0-0.581-0.086-0.803-0.26
		c-0.222-0.174-0.436-0.486-0.641-0.941c-0.2-0.434-0.377-0.863-0.533-1.285s-0.31-0.822-0.46-1.197l-0.845,0.715l-0.635,2.844
		h-1.368l2.181-9.432c0.034-0.152,0.057-0.258,0.069-0.316s0.019-0.131,0.019-0.219c0-0.176-0.03-0.312-0.088-0.408
		c-0.059-0.094-0.142-0.166-0.25-0.215c-0.103-0.045-0.233-0.074-0.39-0.088c-0.157-0.016-0.316-0.031-0.478-0.053l0.103-0.445
		l2.725-0.162l0.074,0.109l-1.792,7.625h0.029c0.551-0.596,1.053-1.111,1.504-1.549s0.923-0.883,1.417-1.336
		c0.351-0.322,0.629-0.543,0.834-0.664c0.205-0.119,0.424-0.18,0.659-0.18c0.249,0,0.449,0.07,0.6,0.209
		C30.301,41.346,30.376,41.536,30.376,41.774z"/>
	<path d="M37.232,42.458c0,0.518-0.162,0.963-0.488,1.336c-0.324,0.371-0.797,0.668-1.416,0.887
		c-0.455,0.166-0.914,0.301-1.377,0.404c-0.465,0.102-0.977,0.188-1.539,0.256c0,0.771,0.143,1.361,0.43,1.77
		c0.285,0.408,0.703,0.611,1.256,0.611c0.488,0,0.918-0.121,1.293-0.367c0.373-0.242,0.74-0.607,1.102-1.09l0.418,0.307
		c-0.391,0.596-0.879,1.072-1.465,1.428c-0.586,0.357-1.195,0.535-1.824,0.535c-0.865,0-1.525-0.242-1.98-0.725
		c-0.457-0.484-0.686-1.172-0.686-2.061c0-0.615,0.096-1.203,0.289-1.764c0.193-0.559,0.475-1.07,0.846-1.535
		c0.361-0.455,0.805-0.822,1.33-1.1c0.525-0.279,1.104-0.418,1.738-0.418c0.703,0,1.225,0.143,1.564,0.428
		C37.062,41.647,37.232,42.012,37.232,42.458z M35.885,42.278c0-0.189-0.027-0.34-0.082-0.449c-0.053-0.109-0.121-0.191-0.205-0.246
		c-0.088-0.059-0.18-0.094-0.277-0.109c-0.098-0.014-0.197-0.021-0.301-0.021c-0.586,0-1.127,0.322-1.621,0.965
		c-0.496,0.643-0.811,1.445-0.941,2.404c0.342-0.049,0.727-0.117,1.156-0.209c0.43-0.09,0.787-0.207,1.07-0.354
		c0.404-0.209,0.707-0.479,0.904-0.809C35.785,43.122,35.885,42.731,35.885,42.278z"/>
	<path d="M40.177,48.549c-0.723,0-1.324-0.129-1.806-0.385c-0.48-0.256-0.721-0.592-0.721-1.008c0-0.195,0.07-0.377,0.212-0.549
		c0.142-0.17,0.315-0.256,0.521-0.256c0.194,0,0.353,0.045,0.472,0.135c0.12,0.09,0.214,0.197,0.282,0.318
		c0.073,0.127,0.138,0.279,0.194,0.455c0.056,0.176,0.104,0.32,0.143,0.432c0.073,0.084,0.175,0.16,0.304,0.23
		c0.13,0.07,0.316,0.105,0.561,0.105c0.527,0,0.927-0.131,1.197-0.396c0.271-0.264,0.406-0.621,0.406-1.07
		c0-0.334-0.127-0.6-0.381-0.797s-0.632-0.381-1.135-0.547c-0.181-0.059-0.394-0.148-0.637-0.268
		c-0.245-0.119-0.439-0.248-0.586-0.385c-0.176-0.158-0.318-0.344-0.426-0.559s-0.16-0.469-0.16-0.764
		c0-0.625,0.279-1.168,0.838-1.625c0.56-0.457,1.246-0.686,2.062-0.686c0.189,0,0.395,0.01,0.615,0.029
		c0.219,0.02,0.461,0.072,0.725,0.16c0.229,0.078,0.425,0.195,0.586,0.348c0.161,0.154,0.242,0.354,0.242,0.598
		c0,0.201-0.067,0.383-0.202,0.545c-0.134,0.164-0.312,0.246-0.53,0.246c-0.182,0-0.33-0.039-0.447-0.117s-0.215-0.184-0.293-0.314
		c-0.078-0.133-0.142-0.273-0.19-0.426c-0.049-0.15-0.103-0.301-0.161-0.447c-0.093-0.037-0.176-0.064-0.249-0.08
		c-0.073-0.014-0.171-0.021-0.293-0.021c-0.479,0-0.841,0.129-1.088,0.385c-0.246,0.258-0.37,0.562-0.37,0.916
		c0,0.342,0.111,0.6,0.334,0.773c0.222,0.174,0.59,0.354,1.102,0.539c0.664,0.24,1.146,0.514,1.447,0.822
		c0.3,0.309,0.45,0.689,0.45,1.145c0,0.744-0.286,1.35-0.856,1.816C41.766,48.315,41.046,48.549,40.177,48.549z"/>
	<path d="M60.369,47.5l-0.11,0.469c-0.451,0.182-0.811,0.307-1.08,0.379c-0.27,0.07-0.5,0.105-0.691,0.105
		c-0.392,0-0.686-0.102-0.882-0.305s-0.294-0.453-0.294-0.752c0-0.107,0.01-0.225,0.029-0.355c0.02-0.129,0.052-0.281,0.096-0.457
		l0.724-2.736c0.055-0.209,0.098-0.4,0.129-0.57c0.032-0.172,0.048-0.309,0.048-0.412c0-0.326-0.07-0.586-0.212-0.777
		c-0.141-0.189-0.364-0.285-0.67-0.285c-0.325,0-0.645,0.076-0.958,0.23s-0.666,0.441-1.06,0.863l-1.286,5.432h-1.36l1.155-4.898
		c0.023-0.107,0.047-0.221,0.069-0.34c0.021-0.119,0.032-0.209,0.032-0.268c0-0.318-0.078-0.566-0.236-0.748
		c-0.157-0.182-0.389-0.271-0.694-0.271c-0.277,0-0.583,0.07-0.917,0.209c-0.335,0.139-0.723,0.451-1.164,0.936l-1.252,5.381h-1.368
		l1.099-4.752c0.039-0.17,0.077-0.354,0.113-0.549c0.037-0.195,0.055-0.361,0.055-0.498c0-0.283-0.046-0.471-0.14-0.562
		c-0.093-0.09-0.274-0.135-0.544-0.135c-0.108,0-0.247,0.02-0.416,0.061c-0.17,0.041-0.301,0.074-0.395,0.1l0.111-0.471
		c0.383-0.172,0.721-0.301,1.016-0.385s0.547-0.125,0.759-0.125c0.393,0,0.671,0.105,0.835,0.318
		c0.165,0.213,0.252,0.502,0.262,0.869h0.044c0.575-0.455,1.049-0.779,1.419-0.975c0.371-0.195,0.812-0.293,1.324-0.293
		c0.434,0,0.786,0.125,1.057,0.377s0.424,0.568,0.457,0.949h0.029c0.521-0.436,0.983-0.764,1.39-0.99
		c0.406-0.225,0.879-0.336,1.419-0.336c0.467,0,0.825,0.135,1.076,0.406c0.25,0.271,0.375,0.627,0.375,1.066
		c0,0.088-0.013,0.244-0.04,0.471c-0.026,0.225-0.069,0.447-0.128,0.666l-0.617,2.354c-0.044,0.156-0.086,0.336-0.125,0.539
		s-0.059,0.361-0.059,0.473c0,0.279,0.059,0.469,0.177,0.568c0.117,0.102,0.314,0.15,0.594,0.15c0.093,0,0.228-0.012,0.403-0.037
		C60.142,47.565,60.276,47.536,60.369,47.5z"/>
	<path d="M67.583,42.458c0,0.518-0.162,0.963-0.487,1.336c-0.324,0.371-0.797,0.668-1.417,0.887
		c-0.454,0.166-0.913,0.301-1.377,0.404c-0.464,0.102-0.977,0.188-1.538,0.256c0,0.771,0.143,1.361,0.429,1.77
		c0.285,0.408,0.704,0.611,1.256,0.611c0.488,0,0.919-0.121,1.293-0.367c0.373-0.242,0.74-0.607,1.103-1.09l0.417,0.307
		c-0.391,0.596-0.879,1.072-1.465,1.428c-0.586,0.357-1.194,0.535-1.823,0.535c-0.865,0-1.525-0.242-1.981-0.725
		c-0.457-0.484-0.685-1.172-0.685-2.061c0-0.615,0.096-1.203,0.289-1.764c0.192-0.559,0.475-1.07,0.846-1.535
		c0.361-0.455,0.805-0.822,1.329-1.1c0.525-0.279,1.104-0.418,1.739-0.418c0.703,0,1.225,0.143,1.564,0.428
		C67.413,41.647,67.583,42.012,67.583,42.458z M66.235,42.278c0-0.189-0.027-0.34-0.081-0.449s-0.122-0.191-0.205-0.246
		c-0.088-0.059-0.181-0.094-0.277-0.109c-0.099-0.014-0.198-0.021-0.301-0.021c-0.586,0-1.127,0.322-1.622,0.965
		c-0.496,0.643-0.81,1.445-0.941,2.404c0.342-0.049,0.728-0.117,1.157-0.209c0.43-0.09,0.786-0.207,1.069-0.354
		c0.405-0.209,0.707-0.479,0.904-0.809C66.137,43.122,66.235,42.731,66.235,42.278z"/>
	<path d="M83.367,42.288c0,0.768-0.11,1.527-0.33,2.281c-0.22,0.752-0.52,1.414-0.9,1.986c-0.426,0.635-0.906,1.127-1.443,1.473
		c-0.537,0.348-1.121,0.521-1.75,0.521c-0.46,0-0.883-0.127-1.271-0.381c-0.388-0.256-0.648-0.604-0.779-1.049
		c-0.176,0.17-0.339,0.33-0.487,0.477c-0.149,0.146-0.344,0.297-0.583,0.455c-0.239,0.156-0.457,0.275-0.655,0.357
		c-0.197,0.084-0.45,0.125-0.758,0.125c-0.371,0-0.678-0.057-0.919-0.172c-0.242-0.115-0.436-0.266-0.582-0.451
		c-0.138-0.176-0.234-0.375-0.293-0.598s-0.088-0.455-0.088-0.699c0-0.094,0.011-0.211,0.032-0.354
		c0.022-0.141,0.045-0.264,0.069-0.365l0.623-2.318c0.059-0.219,0.102-0.42,0.128-0.6c0.027-0.182,0.04-0.33,0.04-0.447
		c0-0.273-0.045-0.457-0.135-0.547c-0.091-0.09-0.275-0.137-0.553-0.137c-0.108,0-0.245,0.021-0.41,0.062
		c-0.167,0.041-0.296,0.074-0.389,0.1l0.109-0.473c0.38-0.172,0.715-0.303,1.005-0.391s0.522-0.133,0.697-0.133
		c0.39,0,0.677,0.092,0.859,0.275s0.273,0.443,0.273,0.781c0,0.088-0.01,0.207-0.029,0.359c-0.02,0.15-0.049,0.303-0.087,0.453
		l-0.677,2.707c-0.044,0.18-0.08,0.365-0.109,0.557c-0.029,0.189-0.044,0.332-0.044,0.426c0,0.365,0.073,0.643,0.22,0.832
		c0.146,0.188,0.393,0.281,0.74,0.281c0.308,0,0.63-0.084,0.967-0.252c0.338-0.17,0.646-0.416,0.924-0.738l1.296-5.564l1.276-0.088
		l0.088,0.109l-1.034,4.467c-0.034,0.146-0.069,0.326-0.106,0.537c-0.036,0.213-0.055,0.348-0.055,0.4
		c0,0.27,0.042,0.482,0.128,0.639c0.085,0.156,0.194,0.271,0.326,0.344c0.127,0.074,0.259,0.119,0.396,0.137
		c0.137,0.016,0.269,0.025,0.396,0.025c0.332,0,0.673-0.105,1.021-0.316c0.35-0.209,0.653-0.482,0.912-0.82
		c0.288-0.377,0.515-0.793,0.682-1.25c0.165-0.457,0.248-0.949,0.248-1.479c0-0.293-0.04-0.52-0.12-0.678
		c-0.081-0.158-0.17-0.297-0.268-0.414c-0.098-0.123-0.187-0.25-0.268-0.385c-0.08-0.135-0.12-0.324-0.12-0.568
		c0-0.279,0.092-0.492,0.277-0.639s0.381-0.219,0.586-0.219c0.288,0,0.515,0.115,0.678,0.348
		C83.285,41.512,83.367,41.848,83.367,42.288z"/>
	<path d="M88.92,47.362h-0.052c-0.107,0.088-0.235,0.199-0.384,0.334c-0.148,0.133-0.323,0.262-0.523,0.385
		c-0.189,0.121-0.396,0.229-0.621,0.318s-0.469,0.135-0.731,0.135c-0.707,0-1.262-0.254-1.664-0.762s-0.604-1.203-0.604-2.082
		c0-0.605,0.112-1.195,0.337-1.768s0.534-1.084,0.93-1.539c0.375-0.436,0.821-0.785,1.339-1.053
		c0.518-0.266,1.049-0.398,1.596-0.398c0.347,0,0.677,0.047,0.991,0.139c0.315,0.094,0.562,0.197,0.743,0.314l1.345-0.344
		l0.088,0.109l-1.116,4.73c-0.039,0.15-0.079,0.336-0.12,0.553c-0.042,0.219-0.062,0.379-0.062,0.48
		c0,0.279,0.059,0.467,0.176,0.564s0.315,0.146,0.594,0.146c0.094,0,0.226-0.014,0.396-0.043c0.172-0.029,0.304-0.061,0.396-0.096
		l-0.11,0.469c-0.44,0.176-0.768,0.303-0.983,0.381c-0.215,0.078-0.477,0.117-0.785,0.117c-0.353,0-0.631-0.104-0.837-0.309
		C89.052,47.94,88.939,47.678,88.92,47.362z M89.975,42.727c0-0.16-0.017-0.314-0.051-0.461s-0.105-0.283-0.213-0.412
		c-0.098-0.121-0.231-0.219-0.402-0.293c-0.171-0.072-0.387-0.109-0.646-0.109c-0.356,0-0.703,0.117-1.04,0.352
		s-0.64,0.551-0.909,0.947c-0.254,0.371-0.461,0.82-0.622,1.348c-0.162,0.529-0.242,1.064-0.242,1.607
		c0,0.297,0.017,0.561,0.051,0.791s0.101,0.439,0.198,0.631c0.092,0.186,0.227,0.33,0.401,0.432
		c0.176,0.104,0.397,0.154,0.665,0.154c0.273,0,0.56-0.076,0.859-0.23s0.637-0.424,1.013-0.811L89.975,42.727z"/>
	<path d="M100.836,47.479l-0.11,0.469c-0.441,0.176-0.784,0.305-1.029,0.385s-0.492,0.121-0.742,0.121
		c-0.393,0-0.687-0.102-0.882-0.305c-0.196-0.203-0.294-0.453-0.294-0.752c0-0.107,0.01-0.225,0.029-0.355
		c0.02-0.129,0.051-0.281,0.096-0.457l0.724-2.736c0.054-0.209,0.097-0.4,0.129-0.57c0.031-0.172,0.047-0.309,0.047-0.412
		c0-0.326-0.077-0.586-0.232-0.777c-0.155-0.189-0.386-0.285-0.69-0.285c-0.296,0-0.628,0.098-0.996,0.293s-0.714,0.48-1.038,0.852
		l-1.252,5.381h-1.368l1.099-4.752c0.024-0.117,0.06-0.287,0.106-0.508c0.046-0.223,0.069-0.402,0.069-0.539
		c0-0.273-0.047-0.457-0.14-0.551c-0.093-0.092-0.279-0.139-0.56-0.139c-0.107,0-0.245,0.018-0.412,0.055s-0.297,0.066-0.391,0.092
		l0.111-0.469c0.383-0.172,0.721-0.299,1.016-0.381c0.295-0.084,0.547-0.125,0.759-0.125c0.388,0,0.665,0.105,0.832,0.314
		c0.166,0.211,0.255,0.502,0.265,0.873h0.044c0.535-0.43,0.997-0.748,1.387-0.957c0.389-0.207,0.831-0.311,1.328-0.311
		c0.467,0,0.831,0.135,1.094,0.406s0.395,0.627,0.395,1.066c0,0.088-0.014,0.244-0.04,0.471c-0.027,0.225-0.07,0.447-0.129,0.666
		l-0.615,2.354c-0.044,0.156-0.087,0.336-0.129,0.539c-0.041,0.203-0.062,0.361-0.062,0.473c0,0.279,0.062,0.469,0.184,0.568
		c0.122,0.102,0.322,0.15,0.601,0.15c0.093,0,0.227-0.016,0.399-0.047C100.609,47.547,100.742,47.514,100.836,47.479z"/>
	<path d="M109.684,47.479l-0.11,0.469c-0.441,0.176-0.784,0.305-1.029,0.385s-0.492,0.121-0.742,0.121
		c-0.393,0-0.687-0.102-0.882-0.305c-0.196-0.203-0.294-0.453-0.294-0.752c0-0.107,0.01-0.225,0.029-0.355
		c0.02-0.129,0.051-0.281,0.096-0.457l0.724-2.736c0.054-0.209,0.097-0.4,0.129-0.57c0.031-0.172,0.047-0.309,0.047-0.412
		c0-0.326-0.077-0.586-0.232-0.777c-0.155-0.189-0.386-0.285-0.69-0.285c-0.296,0-0.628,0.098-0.996,0.293s-0.714,0.48-1.038,0.852
		l-1.252,5.381h-1.368l1.099-4.752c0.024-0.117,0.06-0.287,0.106-0.508c0.046-0.223,0.069-0.402,0.069-0.539
		c0-0.273-0.047-0.457-0.14-0.551c-0.093-0.092-0.279-0.139-0.56-0.139c-0.107,0-0.245,0.018-0.412,0.055s-0.297,0.066-0.391,0.092
		l0.111-0.469c0.383-0.172,0.721-0.299,1.016-0.381c0.295-0.084,0.547-0.125,0.759-0.125c0.388,0,0.665,0.105,0.832,0.314
		c0.166,0.211,0.255,0.502,0.265,0.873h0.044c0.535-0.43,0.997-0.748,1.387-0.957c0.389-0.207,0.831-0.311,1.328-0.311
		c0.467,0,0.831,0.135,1.094,0.406s0.395,0.627,0.395,1.066c0,0.088-0.014,0.244-0.04,0.471c-0.027,0.225-0.07,0.447-0.129,0.666
		l-0.615,2.354c-0.044,0.156-0.087,0.336-0.129,0.539c-0.041,0.203-0.062,0.361-0.062,0.473c0,0.279,0.062,0.469,0.184,0.568
		c0.122,0.102,0.322,0.15,0.601,0.15c0.093,0,0.227-0.016,0.399-0.047C109.457,47.547,109.59,47.514,109.684,47.479z"/>
	<path d="M115.207,47.362h-0.051c-0.107,0.088-0.236,0.199-0.385,0.334c-0.148,0.133-0.322,0.262-0.523,0.385
		c-0.189,0.121-0.396,0.229-0.621,0.318s-0.469,0.135-0.73,0.135c-0.708,0-1.262-0.254-1.665-0.762s-0.604-1.203-0.604-2.082
		c0-0.605,0.112-1.195,0.337-1.768s0.534-1.084,0.93-1.539c0.375-0.436,0.822-0.785,1.339-1.053
		c0.518-0.266,1.049-0.398,1.596-0.398c0.346,0,0.676,0.047,0.99,0.139c0.316,0.094,0.562,0.197,0.744,0.314l1.344-0.344
		l0.088,0.109l-1.115,4.73c-0.039,0.15-0.08,0.336-0.121,0.553c-0.041,0.219-0.062,0.379-0.062,0.48
		c0,0.279,0.059,0.467,0.176,0.564s0.316,0.146,0.594,0.146c0.094,0,0.227-0.014,0.396-0.043c0.172-0.029,0.305-0.061,0.396-0.096
		l-0.109,0.469c-0.441,0.176-0.768,0.303-0.984,0.381c-0.215,0.078-0.477,0.117-0.785,0.117c-0.352,0-0.631-0.104-0.836-0.309
		S115.226,47.678,115.207,47.362z M116.261,42.727c0-0.16-0.016-0.314-0.051-0.461c-0.033-0.146-0.105-0.283-0.213-0.412
		c-0.098-0.121-0.23-0.219-0.402-0.293c-0.17-0.072-0.387-0.109-0.645-0.109c-0.357,0-0.703,0.117-1.041,0.352
		c-0.336,0.234-0.639,0.551-0.908,0.947c-0.254,0.371-0.461,0.82-0.623,1.348c-0.162,0.529-0.242,1.064-0.242,1.607
		c0,0.297,0.017,0.561,0.051,0.791c0.035,0.23,0.101,0.439,0.199,0.631c0.092,0.186,0.227,0.33,0.4,0.432
		c0.176,0.104,0.398,0.154,0.666,0.154c0.273,0,0.559-0.076,0.859-0.23c0.299-0.154,0.637-0.424,1.012-0.811L116.261,42.727z"/>
	<path d="M130.484,43.733c0,0.654-0.115,1.275-0.344,1.861c-0.23,0.586-0.535,1.096-0.916,1.525
		c-0.424,0.475-0.883,0.826-1.379,1.055c-0.494,0.23-1.002,0.346-1.525,0.346c-0.418,0-0.762-0.053-1.031-0.154
		c-0.268-0.104-0.508-0.23-0.717-0.381l-0.428,1.918c-0.029,0.123-0.053,0.238-0.07,0.346c-0.016,0.107-0.025,0.191-0.025,0.256
		c0,0.131,0.049,0.236,0.145,0.314c0.094,0.078,0.203,0.135,0.324,0.168c0.123,0.039,0.26,0.068,0.41,0.088
		c0.152,0.02,0.289,0.035,0.41,0.045l-0.102,0.461h-4.039l0.102-0.461c0.156-0.01,0.303-0.021,0.439-0.037
		c0.137-0.014,0.268-0.039,0.389-0.072c0.152-0.045,0.271-0.127,0.363-0.246c0.09-0.119,0.154-0.268,0.193-0.443l1.529-6.744
		c0.039-0.186,0.074-0.373,0.109-0.561c0.033-0.188,0.051-0.35,0.051-0.486c0-0.275-0.043-0.457-0.127-0.551
		c-0.086-0.092-0.27-0.139-0.553-0.139c-0.107,0-0.244,0.02-0.41,0.062c-0.166,0.041-0.295,0.074-0.387,0.098l0.109-0.469
		c0.371-0.166,0.705-0.293,1.004-0.385c0.297-0.09,0.551-0.135,0.762-0.135c0.342,0,0.602,0.086,0.777,0.26s0.285,0.414,0.328,0.723
		h0.059c0.332-0.309,0.688-0.562,1.066-0.762c0.379-0.201,0.756-0.301,1.131-0.301c0.742,0,1.32,0.252,1.732,0.758
		S130.484,42.877,130.484,43.733z M128.199,46.76c0.248-0.4,0.441-0.857,0.574-1.367c0.135-0.512,0.201-1.053,0.201-1.625
		c0-0.258-0.023-0.52-0.068-0.781c-0.047-0.262-0.121-0.477-0.225-0.648c-0.107-0.191-0.254-0.338-0.439-0.443
		s-0.43-0.158-0.732-0.158c-0.225,0-0.471,0.068-0.742,0.205s-0.602,0.395-0.992,0.771l-0.936,4.156
		c0.035,0.279,0.184,0.539,0.451,0.781c0.266,0.242,0.586,0.363,0.961,0.363c0.387,0,0.748-0.113,1.084-0.338
		S127.96,47.147,128.199,46.76z"/>
	<path d="M136.175,47.303h-0.045c-0.225,0.182-0.439,0.348-0.645,0.498c-0.205,0.152-0.406,0.279-0.607,0.381
		c-0.234,0.117-0.447,0.201-0.637,0.254c-0.191,0.051-0.439,0.076-0.748,0.076c-0.469,0-0.832-0.135-1.092-0.406
		c-0.258-0.271-0.389-0.627-0.389-1.066c0-0.117,0.01-0.256,0.029-0.418c0.02-0.16,0.066-0.398,0.141-0.717l0.568-2.322
		c0.049-0.215,0.088-0.404,0.119-0.57c0.033-0.166,0.049-0.324,0.049-0.477c0-0.273-0.045-0.455-0.135-0.545
		c-0.092-0.092-0.275-0.137-0.553-0.137c-0.107,0-0.244,0.021-0.408,0.062c-0.166,0.041-0.295,0.074-0.389,0.1l0.109-0.473
		c0.381-0.172,0.717-0.303,1.008-0.391c0.291-0.09,0.523-0.133,0.699-0.133c0.391,0,0.678,0.092,0.861,0.273
		c0.184,0.184,0.273,0.443,0.273,0.781c0,0.088-0.01,0.207-0.029,0.357c-0.02,0.152-0.049,0.305-0.088,0.455l-0.645,2.709
		c-0.049,0.205-0.09,0.398-0.121,0.576s-0.047,0.314-0.047,0.406c0,0.328,0.07,0.586,0.211,0.775
		c0.143,0.191,0.367,0.287,0.674,0.287c0.312,0,0.633-0.082,0.961-0.246c0.33-0.164,0.66-0.41,0.992-0.744l1.275-5.514l1.277-0.088
		l0.088,0.109l-1.088,4.717c-0.049,0.201-0.094,0.402-0.133,0.604c-0.039,0.203-0.059,0.346-0.059,0.43
		c0,0.277,0.061,0.467,0.18,0.566c0.119,0.102,0.318,0.15,0.596,0.15c0.094,0,0.225-0.014,0.395-0.043
		c0.172-0.029,0.303-0.061,0.395-0.096l-0.109,0.469c-0.404,0.166-0.742,0.291-1.014,0.373c-0.271,0.084-0.521,0.125-0.75,0.125
		c-0.396,0-0.689-0.115-0.883-0.344C136.271,47.879,136.175,47.612,136.175,47.303z"/>
	<path d="M146.613,42.125c0,0.137-0.02,0.287-0.059,0.451c-0.039,0.162-0.096,0.299-0.17,0.406
		c-0.088,0.131-0.184,0.232-0.289,0.303c-0.104,0.072-0.254,0.107-0.449,0.107c-0.264,0-0.463-0.066-0.594-0.199
		c-0.133-0.131-0.197-0.277-0.197-0.439c0-0.15,0.035-0.32,0.109-0.508c0.072-0.188,0.148-0.375,0.227-0.561
		c-0.059,0-0.154,0.016-0.289,0.047c-0.133,0.033-0.295,0.096-0.486,0.188c-0.189,0.094-0.404,0.232-0.646,0.418
		c-0.24,0.186-0.498,0.434-0.77,0.742l-1.18,5.248h-1.367l1.068-4.752c0.023-0.117,0.061-0.293,0.105-0.527
		c0.047-0.234,0.07-0.408,0.07-0.52c0-0.273-0.047-0.457-0.139-0.551c-0.094-0.092-0.279-0.139-0.557-0.139
		c-0.107,0-0.244,0.018-0.41,0.055s-0.295,0.066-0.389,0.092l0.111-0.469c0.381-0.172,0.717-0.299,1.01-0.381
		c0.293-0.084,0.545-0.125,0.754-0.125c0.391,0,0.67,0.105,0.836,0.318s0.248,0.531,0.248,0.957h0.045
		c0.58-0.504,1.021-0.855,1.322-1.055c0.301-0.201,0.613-0.301,0.941-0.301c0.156,0,0.307,0.02,0.453,0.059s0.271,0.105,0.373,0.197
		c0.107,0.102,0.188,0.221,0.238,0.355C146.587,41.678,146.613,41.872,146.613,42.125z"/>
	<path d="M149.806,48.534c-0.855,0-1.531-0.248-2.025-0.748c-0.496-0.498-0.744-1.207-0.744-2.125c0-0.611,0.094-1.197,0.281-1.756
		c0.189-0.561,0.451-1.057,0.789-1.492c0.336-0.436,0.762-0.791,1.277-1.066c0.516-0.277,1.088-0.414,1.717-0.414
		c0.699,0,1.23,0.146,1.594,0.443c0.363,0.295,0.545,0.668,0.545,1.115c0,0.338-0.078,0.633-0.238,0.887
		c-0.158,0.254-0.396,0.381-0.713,0.381c-0.264,0-0.461-0.064-0.594-0.197c-0.131-0.131-0.197-0.277-0.197-0.438
		c0-0.156,0.053-0.369,0.158-0.639s0.189-0.488,0.252-0.654c-0.055-0.131-0.174-0.227-0.359-0.287s-0.379-0.092-0.578-0.092
		c-0.664,0-1.236,0.387-1.719,1.16c-0.48,0.775-0.721,1.723-0.721,2.846c0,0.693,0.154,1.244,0.465,1.652
		c0.312,0.408,0.73,0.611,1.26,0.611c0.475,0,0.896-0.127,1.266-0.381s0.723-0.613,1.059-1.076l0.42,0.307
		c-0.338,0.533-0.795,0.992-1.375,1.381C151.046,48.34,150.439,48.534,149.806,48.534z"/>
	<path d="M161.355,47.479l-0.109,0.469c-0.441,0.176-0.783,0.305-1.027,0.385s-0.49,0.121-0.74,0.121
		c-0.391,0-0.684-0.102-0.879-0.305c-0.197-0.203-0.295-0.453-0.295-0.752c0-0.107,0.01-0.225,0.029-0.355
		c0.02-0.129,0.053-0.281,0.096-0.457l0.717-2.736c0.055-0.209,0.098-0.4,0.129-0.57c0.031-0.172,0.047-0.309,0.047-0.412
		c0-0.326-0.076-0.586-0.232-0.777c-0.154-0.189-0.385-0.285-0.689-0.285c-0.311,0-0.646,0.1-1.008,0.301
		c-0.359,0.201-0.703,0.482-1.027,0.844l-1.244,5.381h-1.369l2.182-9.432c0.023-0.113,0.045-0.209,0.062-0.287
		c0.016-0.078,0.025-0.16,0.025-0.248c0-0.176-0.029-0.312-0.088-0.408c-0.059-0.094-0.143-0.166-0.25-0.215
		c-0.094-0.045-0.221-0.074-0.383-0.088c-0.162-0.016-0.324-0.031-0.486-0.053l0.104-0.445l2.725-0.162l0.074,0.109l-1.17,5.062
		h0.029c0.5-0.404,0.947-0.711,1.342-0.92c0.393-0.207,0.842-0.311,1.342-0.311c0.467,0,0.832,0.135,1.094,0.406
		s0.395,0.627,0.395,1.066c0,0.088-0.014,0.244-0.041,0.471c-0.027,0.225-0.07,0.447-0.129,0.666l-0.615,2.354
		c-0.039,0.156-0.08,0.336-0.125,0.539c-0.043,0.203-0.066,0.361-0.066,0.473c0,0.279,0.062,0.469,0.184,0.568
		c0.123,0.102,0.322,0.15,0.602,0.15c0.092,0,0.227-0.016,0.398-0.047C161.128,47.547,161.261,47.514,161.355,47.479z"/>
	<path d="M166.878,47.362h-0.051c-0.107,0.088-0.236,0.199-0.385,0.334c-0.148,0.133-0.322,0.262-0.523,0.385
		c-0.189,0.121-0.396,0.229-0.621,0.318s-0.469,0.135-0.73,0.135c-0.707,0-1.262-0.254-1.664-0.762s-0.604-1.203-0.604-2.082
		c0-0.605,0.111-1.195,0.336-1.768s0.535-1.084,0.93-1.539c0.375-0.436,0.822-0.785,1.34-1.053c0.518-0.266,1.049-0.398,1.596-0.398
		c0.346,0,0.676,0.047,0.99,0.139c0.316,0.094,0.562,0.197,0.744,0.314l1.344-0.344l0.088,0.109l-1.115,4.73
		c-0.039,0.15-0.08,0.336-0.121,0.553c-0.041,0.219-0.062,0.379-0.062,0.48c0,0.279,0.059,0.467,0.176,0.564
		s0.316,0.146,0.594,0.146c0.094,0,0.227-0.014,0.396-0.043c0.172-0.029,0.305-0.061,0.396-0.096l-0.109,0.469
		c-0.441,0.176-0.768,0.303-0.984,0.381c-0.215,0.078-0.477,0.117-0.785,0.117c-0.352,0-0.631-0.104-0.836-0.309
		S166.898,47.678,166.878,47.362z M167.933,42.727c0-0.16-0.016-0.314-0.051-0.461c-0.033-0.146-0.105-0.283-0.213-0.412
		c-0.098-0.121-0.23-0.219-0.402-0.293c-0.17-0.072-0.387-0.109-0.645-0.109c-0.357,0-0.703,0.117-1.041,0.352
		c-0.336,0.234-0.639,0.551-0.908,0.947c-0.254,0.371-0.461,0.82-0.623,1.348c-0.162,0.529-0.242,1.064-0.242,1.607
		c0,0.297,0.018,0.561,0.051,0.791c0.035,0.23,0.102,0.439,0.199,0.631c0.092,0.186,0.227,0.33,0.4,0.432
		c0.176,0.104,0.398,0.154,0.666,0.154c0.273,0,0.559-0.076,0.859-0.23c0.299-0.154,0.637-0.424,1.012-0.811L167.933,42.727z"/>
	<path d="M173.031,48.549c-0.723,0-1.324-0.129-1.807-0.385c-0.48-0.256-0.721-0.592-0.721-1.008c0-0.195,0.07-0.377,0.213-0.549
		c0.141-0.17,0.314-0.256,0.52-0.256c0.195,0,0.354,0.045,0.473,0.135s0.213,0.197,0.281,0.318c0.074,0.127,0.139,0.279,0.195,0.455
		c0.055,0.176,0.104,0.32,0.143,0.432c0.072,0.084,0.174,0.16,0.303,0.23c0.131,0.07,0.316,0.105,0.561,0.105
		c0.527,0,0.928-0.131,1.197-0.396c0.271-0.264,0.406-0.621,0.406-1.07c0-0.334-0.127-0.6-0.381-0.797s-0.631-0.381-1.135-0.547
		c-0.18-0.059-0.393-0.148-0.637-0.268s-0.439-0.248-0.586-0.385c-0.176-0.158-0.318-0.344-0.426-0.559s-0.16-0.469-0.16-0.764
		c0-0.625,0.279-1.168,0.838-1.625c0.561-0.457,1.246-0.686,2.062-0.686c0.189,0,0.395,0.01,0.615,0.029
		c0.219,0.02,0.461,0.072,0.725,0.16c0.23,0.078,0.426,0.195,0.586,0.348c0.162,0.154,0.242,0.354,0.242,0.598
		c0,0.201-0.066,0.383-0.201,0.545c-0.135,0.164-0.312,0.246-0.531,0.246c-0.182,0-0.33-0.039-0.447-0.117s-0.215-0.184-0.293-0.314
		c-0.078-0.133-0.141-0.273-0.189-0.426c-0.049-0.15-0.104-0.301-0.162-0.447c-0.092-0.037-0.176-0.064-0.248-0.08
		c-0.074-0.014-0.172-0.021-0.293-0.021c-0.479,0-0.842,0.129-1.088,0.385c-0.246,0.258-0.371,0.562-0.371,0.916
		c0,0.342,0.111,0.6,0.334,0.773s0.59,0.354,1.102,0.539c0.664,0.24,1.146,0.514,1.447,0.822s0.451,0.689,0.451,1.145
		c0,0.744-0.287,1.35-0.857,1.816C174.619,48.315,173.9,48.549,173.031,48.549z"/>
	<path d="M183.628,42.458c0,0.518-0.162,0.963-0.488,1.336c-0.324,0.371-0.797,0.668-1.416,0.887
		c-0.455,0.166-0.914,0.301-1.377,0.404c-0.465,0.102-0.977,0.188-1.539,0.256c0,0.771,0.143,1.361,0.43,1.77
		c0.285,0.408,0.703,0.611,1.256,0.611c0.488,0,0.918-0.121,1.293-0.367c0.373-0.242,0.74-0.607,1.102-1.09l0.418,0.307
		c-0.391,0.596-0.879,1.072-1.465,1.428c-0.586,0.357-1.195,0.535-1.824,0.535c-0.865,0-1.525-0.242-1.98-0.725
		c-0.457-0.484-0.686-1.172-0.686-2.061c0-0.615,0.096-1.203,0.289-1.764c0.193-0.559,0.475-1.07,0.846-1.535
		c0.361-0.455,0.805-0.822,1.33-1.1c0.525-0.279,1.104-0.418,1.738-0.418c0.703,0,1.225,0.143,1.564,0.428
		C183.458,41.647,183.628,42.012,183.628,42.458z M182.281,42.278c0-0.189-0.027-0.34-0.082-0.449
		c-0.053-0.109-0.121-0.191-0.205-0.246c-0.088-0.059-0.18-0.094-0.277-0.109c-0.098-0.014-0.197-0.021-0.301-0.021
		c-0.586,0-1.127,0.322-1.621,0.965c-0.496,0.643-0.811,1.445-0.941,2.404c0.342-0.049,0.727-0.117,1.156-0.209
		c0.43-0.09,0.787-0.207,1.07-0.354c0.404-0.209,0.707-0.479,0.904-0.809C182.181,43.122,182.281,42.731,182.281,42.278z"/>
</g>
</svg>
